PathFileType	4	(X/Y/Z)	C:/Users/opensim2020/Desktop/walking_exp_matlab/subject01_walking11_straight_01.trc	
DataRate	CameraRate	NumFrames	NumMarkers	Units	OrigDataRate	OrigDataStartFrame	OrigNumFrames	
100.00	100.00	4	44	mm	100.00	956	374	
Frame#	Time	LFHD			RFHD			LBHD			RBHD			C7			T10			CLAV			STRN			RBAK			LSHO			LUPA			LELB			LFRM			LWRA			LWRB			LFIN			RSHO			RUPA			RELB			RFRM			RWRA			RWRB			RFIN			LASI			RASI			LPSI			RPSI			LTHI			LKNE			LTIB			LANK			LHEE			LTOE			RTHI			RKNE			RTIB			RANK			RHEE			RTOE			*39			*40			*41			*42			*43			
		X1	Y1	Z1	X2	Y2	Z2	X3	Y3	Z3	X4	Y4	Z4	X5	Y5	Z5	X6	Y6	Z6	X7	Y7	Z7	X8	Y8	Z8	X9	Y9	Z9	X10	Y10	Z10	X11	Y11	Z11	X12	Y12	Z12	X13	Y13	Z13	X14	Y14	Z14	X15	Y15	Z15	X16	Y16	Z16	X17	Y17	Z17	X18	Y18	Z18	X19	Y19	Z19	X20	Y20	Z20	X21	Y21	Z21	X22	Y22	Z22	X23	Y23	Z23	X24	Y24	Z24	X25	Y25	Z25	X26	Y26	Z26	X27	Y27	Z27	X28	Y28	Z28	X29	Y29	Z29	X30	Y30	Z30	X31	Y31	Z31	X32	Y32	Z32	X33	Y33	Z33	X34	Y34	Z34	X35	Y35	Z35	X36	Y36	Z36	X37	Y37	Z37	X38	Y38	Z38	X39	Y39	Z39	X40	Y40	Z40	X41	Y41	Z41	X42	Y42	Z42	X43	Y43	Z43	X44	Y44	Z44	

47	0.460	1363.76453	-987.75433	1673.31506	1475.90161	-965.97601	1682.64331	1380.65137	-1088.57092	1601.76196	1499.68481	-1068.68835	1609.86084	1403.98889	-1087.06458	1426.64648	1410.57849	-1129.22705	1136.43274	1417.58667	-944.71991	1357.85803	1416.34827	-908.02460	1199.23022	1474.16357	-1154.93262	1236.69263	1252.35718	-989.48822	1388.20703	1163.95398	-1005.84961	1203.86658	1159.79456	-1014.18616	1053.60608	1139.02747	-966.80084	948.87256	1167.02185	-886.85950	837.80737	1134.00867	-935.70135	830.70740	1131.04272	-882.75000	764.66650	1560.67700	-1023.99329	1387.02112	1655.75745	-1089.43652	1187.60303	1659.64282	-1083.79041	1062.27185	1691.40527	-1048.40015	946.78143	1678.03589	-957.04352	838.53479	1714.07153	-1003.40002	834.50000	1711.75378	-958.93170	759.94055	1318.67114	-951.93457	926.56683	1535.45776	-968.44330	927.90045	1358.68616	-1141.86694	942.08887	1504.83301	-1150.26782	942.63239	1275.47473	-960.62573	594.98627	1299.62280	-961.94885	461.22183	1296.93604	-1011.96649	276.38327	1361.70483	-1036.85779	63.16024	1414.58875	-1082.47729	35.01289	1356.31689	-889.77191	29.57969	1611.32813	-967.46344	602.05420	1598.37195	-936.49213	446.84436	1591.98083	-1067.98694	328.65103	1538.16956	-1191.71997	166.14766	1477.38086	-1243.17261	150.91806	1569.31616	-1102.49939	62.29573	1455.14417	-987.70624	1712.23938	-3102.05371	1973.00366	1023.51862	-3140.67407	2012.51013	1021.98492						 
48	0.470	1363.31653	-982.39740	1673.63745	1475.37793	-960.61768	1682.92676	1380.24451	-1083.29004	1602.12231	1499.30237	-1063.32715	1610.18188	1403.53870	-1081.84998	1426.95789	1410.37219	-1124.18701	1136.81409	1417.13623	-939.55225	1358.10706	1415.77368	-903.01080	1199.45776	1473.74304	-1149.84204	1237.06372	1251.77197	-984.56665	1388.46045	1163.36829	-1000.28973	1204.25342	1159.11487	-1007.63141	1053.85706	1138.41895	-959.20190	949.54181	1166.16467	-877.77100	839.52063	1133.71985	-927.03784	831.77643	1130.42029	-873.19891	766.29156	1560.26880	-1018.74854	1387.35828	1655.26733	-1084.75427	1188.02661	1659.15759	-1079.52161	1062.65137	1690.85022	-1044.47192	947.10022	1677.57471	-953.34869	838.64587	1713.58606	-999.73010	834.66919	1711.11365	-955.37372	760.04767	1318.25488	-947.42371	926.65118	1534.94910	-963.12134	928.59308	1358.98425	-1137.24707	942.22809	1505.09558	-1144.81860	942.60779	1275.30737	-958.41968	594.75970	1299.29333	-960.72632	461.03345	1296.80688	-1011.22827	276.33517	1361.69031	-1036.73193	63.14192	1414.79883	-1082.36646	34.98960	1356.07104	-889.87329	29.53100	1611.19849	-958.94653	603.59216	1597.50806	-925.80664	448.43533	1592.13062	-1054.41028	326.75467	1539.17883	-1173.82275	160.92807	1478.77588	-1225.19299	143.82446	1570.24475	-1080.77258	60.62477	1454.70361	-982.37787	1712.50879	-3101.82666	1973.12634	1024.00989	-3140.73877	2012.56311	1022.04974						 
49	0.480	1362.89478	-976.98962	1674.11682	1475.00854	-955.18781	1683.21240	1379.93738	-1077.94897	1602.40295	1498.90369	-1057.93164	1610.46667	1403.22498	-1076.70581	1427.34888	1410.17139	-1119.27283	1137.22656	1416.69092	-934.32043	1358.33179	1415.24768	-897.98041	1199.70923	1473.37512	-1144.73303	1237.44568	1251.38782	-979.53406	1388.74988	1162.85742	-994.81689	1204.56189	1158.50146	-1001.09637	1054.12830	1137.86108	-951.67413	950.23645	1164.93335	-868.83813	841.37494	1133.35510	-918.23187	832.73730	1129.91943	-863.72144	767.87939	1559.93005	-1013.43921	1387.62048	1654.85754	-1080.06848	1188.42004	1658.66553	-1075.25000	1063.03333	1690.44324	-1040.45471	947.42865	1677.10388	-949.64404	838.80389	1713.08643	-996.03821	834.82465	1710.58984	-951.83447	760.15118	1317.55798	-942.81989	926.58600	1534.51538	-957.88800	929.14447	1359.26318	-1132.66650	942.46674	1505.45996	-1139.70691	943.09778	1275.09460	-956.29089	594.50879	1298.94922	-959.46375	460.79889	1296.57056	-1010.55713	276.28174	1361.72510	-1036.86377	63.25212	1414.80005	-1082.44006	35.21090	1356.03113	-889.83252	29.44891	1610.48401	-950.37091	604.58881	1596.49487	-915.30310	450.15601	1592.24011	-1040.54358	324.64899	1540.46204	-1155.10999	155.61140	1480.16370	-1206.48022	136.26476	1571.00732	-1058.45959	58.79396	1454.35840	-976.85138	1712.81873	-3101.93799	1973.08887	1023.61542	-3140.58740	2012.49805	1021.96570						 
50	0.490	1362.57166	-971.68390	1674.33374	1474.64563	-949.73413	1683.44507	1379.62744	-1072.61609	1602.72571	1498.64453	-1052.55884	1610.83411	1402.94324	-1071.53748	1427.75488	1410.02087	-1114.28137	1137.60510	1416.28101	-929.07117	1358.55261	1414.68835	-892.96820	1199.88672	1473.06885	-1139.62170	1237.81299	1251.00500	-974.53198	1389.07104	1162.39539	-989.37689	1204.87927	1158.02625	-994.48975	1054.53528	1137.41003	-944.21747	950.90314	1164.33582	-860.07562	842.99036	1133.06885	-909.60455	833.72894	1129.45178	-854.39264	769.51343	1559.55554	-1008.17419	1387.87622	1654.48010	-1075.32141	1188.77893	1658.34204	-1070.98621	1063.51086	1690.03638	-1036.47351	947.68292	1676.69128	-945.94257	838.79449	1712.67993	-992.38538	835.00049	1710.23096	-948.36871	760.18634	1317.47595	-938.08405	926.78674	1534.11853	-952.81274	929.63361	1359.53308	-1128.06177	942.76819	1505.89526	-1134.79163	943.75665	1274.88818	-954.19122	594.30634	1298.62964	-958.16925	460.59299	1296.42883	-1009.95789	276.32224	1361.74463	-1036.75452	63.22237	1414.86865	-1082.33459	35.19659	1355.99268	-889.78418	29.37868	1610.30762	-942.01563	605.66290	1595.54626	-905.38983	451.74429	1592.12207	-1026.95044	322.76089	1541.19250	-1136.60962	149.69189	1481.50488	-1187.63232	128.74561	1571.64392	-1036.12720	56.51056	1453.92590	-971.51764	1713.03247	-3101.84229	1973.23108	1023.53973	-3140.68652	2012.51208	1022.07037						 
